HIERARCHY
ROOT newVegas:Hips
{
	OFFSET 0.000000 96.479958 0.000000
	CHANNELS 6 Xposition Yposition Zposition Xrotation Yrotation Zrotation
	JOINT newVegas:Pelvis
	{
		OFFSET 0.000000 0.000000 0.000000
		CHANNELS 3 Xrotation Yrotation Zrotation
		JOINT newVegas:LeftUpLeg
		{
			OFFSET 18.735201 -5.666702 -4.541200
			CHANNELS 3 Xrotation Yrotation Zrotation
			JOINT newVegas:LeftLeg
			{
				OFFSET -0.021200 -31.938179 0.493100
				CHANNELS 3 Xrotation Yrotation Zrotation
				JOINT newVegas:LeftFoot
				{
					OFFSET 0.021200 -31.938179 -4.336299
					CHANNELS 3 Xrotation Yrotation Zrotation
					JOINT newVegas:LeftToeBase
					{
						OFFSET 0.943001 -26.722000 15.023500
						CHANNELS 3 Xrotation Yrotation Zrotation
						End Site
						{
							OFFSET 0.000000 30.670183 0.000000
						}
					}
				}
				JOINT newVegas:Left_PantLeg
				{
					OFFSET 0.663870 -9.044666 -1.108900
					CHANNELS 3 Xrotation Yrotation Zrotation
					End Site
					{
						OFFSET 1.415995 20.635357 0.000000
					}
				}
			}
		}
		JOINT newVegas:RightUpLeg
		{
			OFFSET -18.735201 -5.666702 -4.541200
			CHANNELS 3 Xrotation Yrotation Zrotation
			JOINT newVegas:RightLeg
			{
				OFFSET 0.018946 -31.938133 0.493100
				CHANNELS 3 Xrotation Yrotation Zrotation
				JOINT newVegas:RightFoot
				{
					OFFSET -0.018946 -31.938126 -4.336299
					CHANNELS 3 Xrotation Yrotation Zrotation
					JOINT newVegas:RightToeBase
					{
						OFFSET -0.943001 -26.722004 15.023500
						CHANNELS 3 Xrotation Yrotation Zrotation
						End Site
						{
							OFFSET 0.000000 30.670187 0.000000
						}
					}
				}
				JOINT newVegas:Right_PantLeg
				{
					OFFSET -0.661674 -9.044716 -1.108900
					CHANNELS 3 Xrotation Yrotation Zrotation
					End Site
					{
						OFFSET -1.415958 20.635269 0.000000
					}
				}
			}
		}
	}
	JOINT newVegas:Spine
	{
		OFFSET 0.000000 10.199997 -0.299500
		CHANNELS 3 Xrotation Yrotation Zrotation
		JOINT newVegas:Spine1
		{
			OFFSET 0.000000 11.900002 -1.516600
			CHANNELS 3 Xrotation Yrotation Zrotation
			JOINT newVegas:Spine2
			{
				OFFSET 0.000000 13.600006 -2.842500
				CHANNELS 3 Xrotation Yrotation Zrotation
				JOINT newVegas:Neck
				{
					OFFSET 0.000000 9.624100 -2.890100
					CHANNELS 3 Xrotation Yrotation Zrotation
					JOINT newVegas:Head
					{
						OFFSET 0.000000 14.068802 -1.351900
						CHANNELS 3 Xrotation Yrotation Zrotation
						JOINT newVegas:Hair_Back
						{
							OFFSET 0.000000 3.231903 -17.524799
							CHANNELS 3 Xrotation Yrotation Zrotation
							End Site
							{
								OFFSET 0.000000 19.849884 0.000000
							}
						}
						JOINT newVegas:Hair_Front
						{
							OFFSET 0.000000 31.260406 4.573800
							CHANNELS 3 Xrotation Yrotation Zrotation
							JOINT newVegas:Hair_Front1
							{
								OFFSET 0.000000 2.284103 11.993300
								CHANNELS 3 Xrotation Yrotation Zrotation
								JOINT newVegas:Hair_Front2
								{
									OFFSET 0.000000 2.284103 11.993300
									CHANNELS 3 Xrotation Yrotation Zrotation
									End Site
									{
										OFFSET 0.000000 12.208862 0.000000
									}
								}
							}
						}
						JOINT newVegas:Jowel
						{
							OFFSET 0.000000 -7.458206 6.864100
							CHANNELS 3 Xrotation Yrotation Zrotation
							End Site
							{
								OFFSET 0.000000 19.849884 0.000000
							}
						}
					}
				}
				JOINT newVegas:LeftShoulder
				{
					OFFSET 15.263000 10.923401 -0.547700
					CHANNELS 3 Xrotation Yrotation Zrotation
					JOINT newVegas:LeftArm
					{
						OFFSET 25.438599 -2.830597 -13.032500
						CHANNELS 3 Xrotation Yrotation Zrotation
						JOINT newVegas:LeftForeArm
						{
							OFFSET 29.960503 0.000000 0.000000
							CHANNELS 3 Xrotation Yrotation Zrotation
							JOINT newVegas:LeftHand
							{
								OFFSET 27.849251 0.000000 0.000000
								CHANNELS 3 Xrotation Yrotation Zrotation
								JOINT newVegas:LeftHandThumb1
								{
									OFFSET 4.487587 -3.305161 6.305391
									CHANNELS 3 Xrotation Yrotation Zrotation
									JOINT newVegas:LeftHandThumb2
									{
										OFFSET 5.480453 -3.164139 3.164143
										CHANNELS 3 Xrotation Yrotation Zrotation
										JOINT newVegas:LeftHandThumb3
										{
											OFFSET 5.159721 -2.978973 2.978967
											CHANNELS 3 Xrotation Yrotation Zrotation
											End Site
											{
												OFFSET 2.494507 5.926697 1.738678
											}
										}
									}
								}
								JOINT newVegas:LeftHandIndex1
								{
									OFFSET 18.578728 -0.527832 5.208049
									CHANNELS 3 Xrotation Yrotation Zrotation
									JOINT newVegas:LeftHandIndex2
									{
										OFFSET 3.192009 0.000000 0.000000
										CHANNELS 3 Xrotation Yrotation Zrotation
										JOINT newVegas:LeftHandIndex3
										{
											OFFSET 3.835129 0.000000 0.000000
											CHANNELS 3 Xrotation Yrotation Zrotation
											End Site
											{
												OFFSET -0.034599 3.816971 0.371180
											}
										}
									}
								}
								JOINT newVegas:LeftHandMiddle1
								{
									OFFSET 18.476105 0.000000 0.000000
									CHANNELS 3 Xrotation Yrotation Zrotation
									JOINT newVegas:LeftHandMiddle2
									{
										OFFSET 3.324875 0.000000 0.000000
										CHANNELS 3 Xrotation Yrotation Zrotation
										JOINT newVegas:LeftHandMiddle3
										{
											OFFSET 4.596550 0.000000 0.000000
											CHANNELS 3 Xrotation Yrotation Zrotation
											End Site
											{
												OFFSET 0.057701 4.578827 0.399218
											}
										}
									}
								}
								JOINT newVegas:LeftHandRing1
								{
									OFFSET 17.732719 0.121887 -4.201567
									CHANNELS 3 Xrotation Yrotation Zrotation
									JOINT newVegas:LeftHandRing2
									{
										OFFSET 2.733170 0.000000 0.000000
										CHANNELS 3 Xrotation Yrotation Zrotation
										JOINT newVegas:LeftHandRing3
										{
											OFFSET 3.178268 0.000000 0.000000
											CHANNELS 3 Xrotation Yrotation Zrotation
											End Site
											{
												OFFSET 0.119102 3.170624 0.185394
											}
										}
									}
								}
								JOINT newVegas:LeftHandPinky1
								{
									OFFSET 15.989624 -0.606689 -7.535461
									CHANNELS 3 Xrotation Yrotation Zrotation
									JOINT newVegas:LeftHandPinky2
									{
										OFFSET 2.538986 0.000000 0.000000
										CHANNELS 3 Xrotation Yrotation Zrotation
										JOINT newVegas:LeftHandPinky3
										{
											OFFSET 2.593102 0.000000 0.000000
											CHANNELS 3 Xrotation Yrotation Zrotation
											End Site
											{
												OFFSET -0.150902 2.584198 0.152708
											}
										}
									}
								}
							}
							JOINT newVegas:Left_Sleeve
							{
								OFFSET 0.267448 -0.649796 0.577675
								CHANNELS 3 Xrotation Yrotation Zrotation
								End Site
								{
									OFFSET 0.000000 15.991241 0.000000
								}
							}
							JOINT newVegas:Left_CapeC
							{
								OFFSET 15.715958 -8.608795 -6.935905
								CHANNELS 3 Xrotation Yrotation Zrotation
								JOINT newVegas:Left_CapeC1
								{
									OFFSET 0.000000 -8.688499 0.000000
									CHANNELS 3 Xrotation Yrotation Zrotation
									End Site
									{
										OFFSET 0.000000 8.688499 0.000000
									}
								}
							}
						}
						JOINT newVegas:Left_CapeB
						{
							OFFSET 26.118385 -8.608795 -7.079235
							CHANNELS 3 Xrotation Yrotation Zrotation
							JOINT newVegas:Left_CapeB1
							{
								OFFSET 0.000000 -8.688499 0.000000
								CHANNELS 3 Xrotation Yrotation Zrotation
								End Site
								{
									OFFSET 0.000000 8.688499 0.000000
								}
							}
						}
						JOINT newVegas:Left_CapeA
						{
							OFFSET 5.115639 -8.608795 -10.395809
							CHANNELS 3 Xrotation Yrotation Zrotation
							JOINT newVegas:Left_CapeA1
							{
								OFFSET 0.000000 -8.688499 0.000000
								CHANNELS 3 Xrotation Yrotation Zrotation
								End Site
								{
									OFFSET 0.000000 8.688499 0.000000
								}
							}
						}
					}
				}
				JOINT newVegas:RightShoulder
				{
					OFFSET -15.263000 10.923401 -0.547700
					CHANNELS 3 Xrotation Yrotation Zrotation
					JOINT newVegas:RightArm
					{
						OFFSET -25.438599 -2.830597 -13.032500
						CHANNELS 3 Xrotation Yrotation Zrotation
						JOINT newVegas:RightForeArm
						{
							OFFSET -29.960503 0.000000 0.000000
							CHANNELS 3 Xrotation Yrotation Zrotation
							JOINT newVegas:RightHand
							{
								OFFSET -27.849251 0.000000 0.000000
								CHANNELS 3 Xrotation Yrotation Zrotation
								JOINT newVegas:RightHandThumb1
								{
									OFFSET -4.487587 -3.305161 6.305391
									CHANNELS 3 Xrotation Yrotation Zrotation
									JOINT newVegas:RightHandThumb2
									{
										OFFSET -5.480453 -3.164139 3.164143
										CHANNELS 3 Xrotation Yrotation Zrotation
										JOINT newVegas:RightHandThumb3
										{
											OFFSET -5.159721 -2.978973 2.978967
											CHANNELS 3 Xrotation Yrotation Zrotation
											End Site
											{
												OFFSET -2.494507 5.926697 1.738678
											}
										}
									}
								}
								JOINT newVegas:RightHandIndex1
								{
									OFFSET -18.578728 -0.527832 5.208049
									CHANNELS 3 Xrotation Yrotation Zrotation
									JOINT newVegas:RightHandIndex2
									{
										OFFSET -3.192009 0.000000 0.000000
										CHANNELS 3 Xrotation Yrotation Zrotation
										JOINT newVegas:RightHandIndex3
										{
											OFFSET -3.835129 0.000000 0.000000
											CHANNELS 3 Xrotation Yrotation Zrotation
											End Site
											{
												OFFSET 0.034599 3.816971 0.371180
											}
										}
									}
								}
								JOINT newVegas:RightHandMiddle1
								{
									OFFSET -18.476105 0.000000 0.000000
									CHANNELS 3 Xrotation Yrotation Zrotation
									JOINT newVegas:RightHandMiddle2
									{
										OFFSET -3.324875 0.000000 0.000000
										CHANNELS 3 Xrotation Yrotation Zrotation
										JOINT newVegas:RightHandMiddle3
										{
											OFFSET -4.596550 0.000000 0.000000
											CHANNELS 3 Xrotation Yrotation Zrotation
											End Site
											{
												OFFSET -0.057701 4.578827 0.399218
											}
										}
									}
								}
								JOINT newVegas:RightHandRing1
								{
									OFFSET -17.732719 0.121887 -4.201567
									CHANNELS 3 Xrotation Yrotation Zrotation
									JOINT newVegas:RightHandRing2
									{
										OFFSET -2.733170 0.000000 0.000000
										CHANNELS 3 Xrotation Yrotation Zrotation
										JOINT newVegas:RightHandRing3
										{
											OFFSET -3.178268 0.000000 0.000000
											CHANNELS 3 Xrotation Yrotation Zrotation
											End Site
											{
												OFFSET -0.119102 3.170624 0.185394
											}
										}
									}
								}
								JOINT newVegas:RightHandPinky1
								{
									OFFSET -15.989624 -0.606689 -7.535461
									CHANNELS 3 Xrotation Yrotation Zrotation
									JOINT newVegas:RightHandPinky2
									{
										OFFSET -2.538986 0.000000 0.000000
										CHANNELS 3 Xrotation Yrotation Zrotation
										JOINT newVegas:RightHandPinky3
										{
											OFFSET -2.593102 0.000000 0.000000
											CHANNELS 3 Xrotation Yrotation Zrotation
											End Site
											{
												OFFSET 0.150902 2.584198 0.152708
											}
										}
									}
								}
							}
							JOINT newVegas:Right_CapeC
							{
								OFFSET -15.715958 -8.608795 -6.935905
								CHANNELS 3 Xrotation Yrotation Zrotation
								JOINT newVegas:Right_CapeC1
								{
									OFFSET 0.000000 -8.688499 0.000000
									CHANNELS 3 Xrotation Yrotation Zrotation
									End Site
									{
										OFFSET 0.000000 8.688499 0.000000
									}
								}
							}
							JOINT newVegas:Right_Sleeve
							{
								OFFSET -0.267448 -0.649994 0.577675
								CHANNELS 3 Xrotation Yrotation Zrotation
								End Site
								{
									OFFSET 0.000000 15.991302 0.000000
								}
							}
						}
						JOINT newVegas:Right_CapeA
						{
							OFFSET -5.115540 -8.608795 -10.395824
							CHANNELS 3 Xrotation Yrotation Zrotation
							JOINT newVegas:Right_CapeA1
							{
								OFFSET 0.000000 -8.688499 0.000000
								CHANNELS 3 Xrotation Yrotation Zrotation
								End Site
								{
									OFFSET 0.000000 8.688499 0.000000
								}
							}
						}
						JOINT newVegas:Right_CapeB
						{
							OFFSET -26.118187 -8.608795 -7.079266
							CHANNELS 3 Xrotation Yrotation Zrotation
							JOINT newVegas:Right_CapeB1
							{
								OFFSET 0.000000 -8.688499 0.000000
								CHANNELS 3 Xrotation Yrotation Zrotation
								End Site
								{
									OFFSET 0.000000 8.688499 0.000000
								}
							}
						}
					}
				}
				JOINT newVegas:Left_Collar
				{
					OFFSET 18.625099 8.655502 8.828100
					CHANNELS 3 Xrotation Yrotation Zrotation
					JOINT newVegas:Left_Collar1
					{
						OFFSET 14.783401 10.540405 -1.259500
						CHANNELS 3 Xrotation Yrotation Zrotation
						End Site
						{
							OFFSET 0.000000 18.199875 0.000000
						}
					}
				}
				JOINT newVegas:Collar_Back
				{
					OFFSET 0.000000 15.630707 -20.132601
					CHANNELS 3 Xrotation Yrotation Zrotation
					End Site
					{
						OFFSET 0.000000 22.523010 0.000000
					}
				}
				JOINT newVegas:Left_Peck
				{
					OFFSET 17.239599 -5.132599 25.482599
					CHANNELS 3 Xrotation Yrotation Zrotation
					End Site
					{
						OFFSET 0.000000 22.523010 0.000000
					}
				}
				JOINT newVegas:Right_Peck
				{
					OFFSET -17.239599 -5.132202 25.482599
					CHANNELS 3 Xrotation Yrotation Zrotation
					End Site
					{
						OFFSET 0.000000 22.523010 0.000000
					}
				}
				JOINT newVegas:Right_Collar
				{
					OFFSET -18.625099 8.655792 8.828100
					CHANNELS 3 Xrotation Yrotation Zrotation
					JOINT newVegas:Right_Collar1
					{
						OFFSET -14.783401 10.539993 -1.259500
						CHANNELS 3 Xrotation Yrotation Zrotation
						End Site
						{
							OFFSET 0.000000 18.199631 0.000000
						}
					}
				}
			}
		}
		JOINT newVegas:Belly
		{
			OFFSET 0.000000 -6.540398 9.014299
			CHANNELS 3 Xrotation Yrotation Zrotation
			End Site
			{
				OFFSET 0.000000 11.566666 0.000000
			}
		}
	}
	JOINT newVegas:ElvisFacialAnim_Joint
	{
		OFFSET 1.000000 -95.330101 -8.825800
		CHANNELS 3 Xrotation Yrotation Zrotation
		End Site
		{
			OFFSET 0.000000 35.315800 0.000000
		}
	}
}
MOTION
Frames: 4
Frame Time: 0.033333
0.583698 95.253601 4.357093 -3.739993 1.762422 -2.713606 -0.000000 -0.000000 0.000000 -14.985555 13.497704 12.524812 20.455653 1.788265 4.638723 -2.597119 1.115047 -9.510523 0.000000 0.000000 -0.000000 0.000000 -0.000000 -0.000001 4.296992 -10.104013 2.821809 4.999657 -9.662593 -3.266158 -4.845159 -1.879860 4.156206 -0.000000 -0.000000 -0.000000 0.000000 0.000000 -0.000000 3.309465 1.517587 2.139785 1.146561 0.329178 1.556388 1.124440 0.356278 1.558142 1.124535 -0.019072 0.092142 1.124539 -0.019072 0.092144 0.000000 0.000000 0.000000 1.124604 -0.019067 0.092142 1.124529 -0.019073 0.092144 0.000000 -0.000000 -0.000000 0.000000 0.000000 0.000000 1.046098 -17.446002 -12.316920 3.915819 -19.989404 -69.767582 -0.000008 -1.453246 0.000008 -33.228290 -1.359652 -6.191100 -0.666101 2.158571 4.837387 11.856581 25.414482 17.056268 -0.000000 -0.000002 -0.000003 0.019549 -0.976352 -7.591948 0.267953 1.753160 -17.378438 -0.000000 -0.000000 -0.000000 -0.074818 2.671198 -15.697822 0.268766 1.755750 -17.404995 -0.000001 0.000000 0.000001 0.137961 3.644522 -21.134328 0.386594 2.094701 -20.911017 -0.000000 -0.000002 0.000001 0.934040 5.552626 -27.128051 0.268780 1.755778 -17.405347 0.000000 -0.000005 -0.000005 -0.000001 0.000000 0.000000 -0.000001 0.000000 0.000000 -0.000001 0.000000 0.000000 -0.000001 0.000000 0.000000 -0.000000 0.000000 -0.000000 -0.000001 0.000000 0.000000 -0.000002 -0.000000 -0.000000 1.189530 15.344109 14.707062 13.165929 27.549189 58.779372 0.000006 6.695450 -0.000022 -20.174779 -0.526302 6.791815 -1.664646 -0.169055 -4.216400 12.710045 -29.840045 -16.107936 -0.000003 -0.000003 -0.000001 0.037800 1.264715 6.828682 0.213865 -1.396486 17.412983 -0.000002 -0.000001 -0.000001 -0.132959 -2.217261 14.997815 0.214477 -1.398414 17.437902 0.000002 -0.000000 0.000000 0.035093 -3.088296 20.462907 0.308441 -1.668290 20.948685 -0.000001 -0.000001 0.000001 0.764021 -4.867856 26.474288 0.214426 -1.398290 17.436107 -0.000002 0.000003 0.000001 0.000001 -0.000000 -0.000000 0.000001 -0.000000 -0.000000 0.000001 -0.000000 -0.000000 0.000003 -0.000001 -0.000000 0.000003 0.000000 -0.000001 0.000003 -0.000001 -0.000000 0.000003 -0.000000 -0.000001 0.000000 -0.000000 0.000000 0.000000 -0.000000 0.000000 0.000000 -0.000000 0.000000 0.000000 -0.000000 0.000000 0.000000 -0.000000 0.000000 0.000000 -0.000000 0.000000 0.000000 -0.000000 0.000000 0.000000 -0.000000 0.000000 -0.000000 -0.000000 0.000000 
0.563687 95.149399 4.642429 -3.705047 1.833764 -2.711010 0.000000 -0.000000 0.000000 -15.285984 13.468596 12.693282 21.379735 1.264599 4.542352 -3.159821 1.588792 -9.468316 -0.000000 0.000001 -0.000000 0.000000 0.000001 -0.000000 3.837270 -10.152988 2.776712 6.339770 -9.114964 -3.230268 -5.699078 -2.360113 4.085239 0.000000 0.000001 0.000000 -0.000000 0.000000 -0.000000 3.271778 1.489288 2.167196 1.147007 0.316617 1.556047 1.124885 0.334077 1.558244 1.142763 0.005554 0.087548 1.142766 0.005551 0.087548 0.000000 -0.000000 -0.000000 1.142908 0.005552 0.087550 1.142690 0.005555 0.087547 -0.000000 -0.000000 0.000000 0.000000 -0.000000 -0.000000 0.933307 -16.790321 -12.736138 4.561168 -20.966703 -68.698330 -0.000001 -2.968590 0.000009 -32.926505 0.016984 -5.806786 -0.666101 2.158568 4.837387 11.856586 25.414502 17.056285 0.000003 0.000000 -0.000004 0.021032 -0.979092 -7.565355 0.267955 1.753158 -17.378446 0.000000 0.000000 0.000000 -0.075074 2.666160 -15.649802 0.268768 1.755750 -17.404997 -0.000000 -0.000000 -0.000004 0.137962 3.644524 -21.134315 0.386592 2.094701 -20.910991 0.000001 -0.000001 -0.000001 0.934045 5.552627 -27.128055 0.268780 1.755776 -17.405339 0.000000 -0.000005 -0.000002 0.000002 -0.000000 0.000001 0.000002 -0.000000 0.000001 0.000002 -0.000000 0.000001 0.000003 0.000000 -0.000001 0.000003 0.000000 -0.000001 0.000003 0.000000 -0.000001 0.000001 0.000000 -0.000001 0.902782 15.725211 14.956758 12.493595 27.258100 59.027116 0.000008 5.575292 -0.000024 -20.087801 -0.761235 7.371027 -1.664651 -0.169044 -4.216413 12.710045 -29.840058 -16.107954 0.000000 0.000001 -0.000000 0.037795 1.264713 6.828664 0.213864 -1.396498 17.412973 -0.000001 -0.000001 -0.000002 -0.132967 -2.217239 14.997822 0.214464 -1.398423 17.437900 0.000000 -0.000001 -0.000001 0.035083 -3.088289 20.462936 0.308451 -1.668299 20.948679 -0.000001 0.000004 -0.000000 0.764001 -4.867855 26.474305 0.214434 -1.398289 17.436121 0.000000 0.000001 0.000002 0.000002 0.000000 0.000000 0.000002 0.000000 0.000000 0.000002 0.000000 0.000000 -0.000001 -0.000001 -0.000001 -0.000001 -0.000001 -0.000001 -0.000001 -0.000001 -0.000001 -0.000001 -0.000001 -0.000001 0.000000 0.000000 -0.000000 0.000000 0.000000 -0.000000 0.000000 0.000000 -0.000000 0.000000 0.000000 -0.000000 0.000000 0.000000 -0.000000 0.000000 0.000000 -0.000000 0.000000 0.000000 -0.000000 -0.000000 0.000000 0.000000 0.000000 -0.000000 0.000000 
0.541127 95.060493 4.927025 -3.682669 1.912709 -2.696776 -0.000000 -0.000000 -0.000000 -15.486942 13.521811 12.855444 22.127590 0.416167 4.412069 -3.641961 2.308561 -9.377469 -0.000000 0.000002 -0.000000 -0.000000 0.000001 0.000001 3.539861 -10.236242 2.741616 7.401204 -8.587728 -3.230931 -6.408845 -2.839854 4.046061 -0.000000 -0.000003 0.000000 0.000000 0.000001 -0.000000 3.243994 1.453266 2.196378 1.145925 0.306401 1.555512 1.123774 0.327316 1.559484 1.164636 0.046763 0.083075 1.164628 0.046761 0.083073 0.000000 0.000000 0.000000 1.164567 0.046763 0.083077 1.164780 0.046763 0.083076 0.000000 0.000000 -0.000000 0.000000 0.000000 0.000000 0.827993 -16.087344 -13.164969 5.350544 -21.872364 -67.671254 -0.000004 -4.513174 0.000012 -32.830192 1.477018 -5.346165 -0.666100 2.158572 4.837387 11.856581 25.414487 17.056275 0.000000 -0.000000 -0.000005 0.018783 -0.982693 -7.524648 0.267955 1.753158 -17.378445 -0.000000 -0.000001 -0.000002 -0.075463 2.658436 -15.576149 0.268767 1.755749 -17.405002 0.000000 0.000000 -0.000003 0.137961 3.644522 -21.134311 0.386591 2.094701 -20.911020 0.000000 -0.000002 -0.000001 0.934041 5.552624 -27.128053 0.268777 1.755782 -17.405316 0.000000 -0.000003 0.000000 -0.000003 -0.000000 0.000000 -0.000003 -0.000000 0.000000 -0.000004 -0.000000 0.000000 -0.000002 -0.000002 0.000001 -0.000002 -0.000002 0.000001 -0.000002 -0.000002 0.000001 -0.000004 -0.000001 0.000000 0.605087 16.115854 15.226006 12.286609 26.706907 58.987863 -0.000004 5.332352 0.000022 -20.379596 -1.529535 7.822992 -1.664672 -0.169040 -4.216403 12.710046 -29.840065 -16.107972 -0.000000 -0.000000 -0.000000 0.037797 1.264718 6.828641 0.213869 -1.396490 17.412944 0.000004 0.000003 0.000003 -0.132962 -2.217246 14.997815 0.214472 -1.398430 17.437861 -0.000001 0.000001 0.000002 0.035087 -3.088290 20.462907 0.308450 -1.668291 20.948690 -0.000002 0.000002 0.000000 0.763982 -4.867872 26.474271 0.214427 -1.398283 17.436103 -0.000001 -0.000000 -0.000001 -0.000000 0.000000 -0.000000 -0.000000 0.000000 -0.000000 -0.000000 0.000000 -0.000000 0.000002 -0.000001 -0.000001 0.000002 0.000000 -0.000001 0.000002 -0.000001 -0.000001 0.000002 -0.000000 -0.000001 -0.000000 -0.000000 0.000000 -0.000000 -0.000000 0.000000 -0.000000 -0.000000 0.000000 -0.000000 -0.000000 0.000000 -0.000000 -0.000000 0.000000 -0.000000 -0.000000 0.000000 -0.000000 -0.000000 0.000000 0.000000 -0.000000 0.000000 -0.000000 -0.000000 -0.000000 
0.506578 94.976906 5.212884 -3.638434 2.042669 -2.673767 -0.000000 -0.000000 -0.000000 -15.687973 13.687145 13.034771 22.765896 -0.895126 4.231224 -4.073219 3.313689 -9.192577 -0.000000 0.000001 0.000000 -0.000001 -0.000002 -0.000000 3.445754 -10.393340 2.735698 8.105525 -8.129686 -3.233921 -7.012356 -3.310008 4.026987 -0.000000 -0.000001 -0.000000 0.000001 0.000000 -0.000001 3.190552 1.379821 2.246408 1.136293 0.285966 1.562597 1.114120 0.311259 1.565308 1.197798 0.134629 0.070443 1.197795 0.134630 0.070442 -0.000000 -0.000000 -0.000000 1.197871 0.134628 0.070443 1.197799 0.134631 0.070443 -0.000000 -0.000000 -0.000000 -0.000000 -0.000000 -0.000000 0.731430 -15.317538 -13.595495 6.234522 -22.726283 -66.656847 -0.000001 -6.074476 -0.000012 -32.854555 2.981063 -4.832336 -0.666097 2.158568 4.837379 11.856582 25.414476 17.056253 0.000001 0.000000 -0.000004 0.010407 -0.989099 -7.446562 0.267951 1.753160 -17.378441 0.000001 0.000000 0.000003 -0.076155 2.644095 -15.439455 0.268769 1.755748 -17.405001 0.000001 -0.000000 0.000001 0.137960 3.644524 -21.134323 0.386592 2.094698 -20.911010 0.000001 -0.000001 -0.000001 0.934030 5.552628 -27.128031 0.268779 1.755775 -17.405345 0.000001 -0.000002 -0.000001 0.000003 0.000000 -0.000000 0.000003 0.000000 -0.000000 0.000002 0.000000 -0.000000 -0.000001 0.000001 -0.000000 -0.000001 0.000001 -0.000000 -0.000001 0.000001 -0.000000 -0.000002 0.000001 -0.000001 0.299006 16.482787 15.533211 12.172751 26.126124 58.798373 -0.000006 5.345958 0.000006 -21.495683 -2.680788 8.248113 -1.664658 -0.169044 -4.216416 12.710054 -29.840041 -16.107886 0.000000 -0.000000 -0.000000 0.037802 1.264716 6.828669 0.213867 -1.396487 17.412971 -0.000001 0.000000 -0.000000 -0.132961 -2.217246 14.997810 0.214471 -1.398412 17.437902 0.000002 -0.000000 0.000001 0.035090 -3.088299 20.462904 0.308453 -1.668290 20.948685 -0.000001 0.000001 0.000002 0.764054 -4.867840 26.474276 0.214435 -1.398285 17.436115 -0.000001 -0.000000 0.000001 -0.000001 -0.000000 0.000000 -0.000001 -0.000000 0.000000 -0.000001 -0.000000 0.000000 0.000002 -0.000001 -0.000000 0.000003 -0.000001 0.000000 0.000002 -0.000001 -0.000000 0.000003 -0.000001 0.000000 0.000000 -0.000000 0.000000 0.000000 -0.000000 0.000000 0.000000 -0.000000 0.000000 0.000000 -0.000000 0.000000 0.000000 -0.000000 0.000000 0.000000 -0.000000 0.000000 0.000000 -0.000000 0.000000 0.000000 0.000000 -0.000000 -0.000000 -0.000000 -0.000000 
